<svg width="24" height="24" viewBox="0 0 24 24" fill="none" xmlns="http://www.w3.org/2000/svg">
<path fill-rule="evenodd" clip-rule="evenodd" d="M9.35851 4.72641C9.8559 5.10871 10.1419 5.67879 10.1419 6.29047C10.1419 11.221 10.3119 12.5478 11.0069 13.0527C11.4629 13.3822 12.0878 13.3788 14.1934 13.3214C15.1721 13.2933 16.4254 13.2573 18.0669 13.2573C18.7216 13.2573 19.3385 13.5317 19.7566 14.0096C20.1449 14.4537 20.3149 15.0339 20.2253 15.6051C19.4579 20.4682 15.2307 24 10.1741 24C4.56381 24 0 19.5327 0 14.0422C0 9.68845 3.36341 5.33472 7.49761 4.33849C8.14318 4.18444 8.837 4.32837 9.35851 4.72641ZM8.02027 5.96327C7.98351 5.96327 7.94675 5.96776 7.90999 5.97676C4.49833 6.79871 1.72306 10.4171 1.72306 14.0422C1.72306 18.6028 5.51379 22.3134 10.1741 22.3134C14.3749 22.3134 17.8854 19.3843 18.5217 15.3476C18.5263 15.3139 18.5424 15.2161 18.4482 15.107C18.3586 15.0047 18.2162 14.944 18.0669 14.944C16.446 14.944 15.2089 14.9799 14.2428 15.0069C11.904 15.0755 10.9368 15.1014 9.98111 14.4076C8.6145 13.4166 8.43482 11.7506 8.41999 7.07536L8.41887 6.29047C8.41887 6.19602 8.37751 6.11731 8.29481 6.05434C8.21784 5.99475 8.1202 5.96327 8.02027 5.96327ZM20.7346 3.07386C22.754 5.04946 24.036 7.64573 23.9992 9.68879C23.9854 10.486 23.3939 11.1517 22.5944 11.2697C21.0344 11.5002 19.208 11.5699 17.5917 11.5699C16.0869 11.5699 14.7625 11.5103 14.0009 11.4676C13.0429 11.4125 12.2801 10.6648 12.225 9.72702C12.1354 8.24054 11.9413 4.46364 12.0791 1.54241C12.117 0.693473 12.8177 0.0177 13.6747 0.00308265C16.1294 -0.066631 18.6623 1.04879 20.7346 3.07386ZM13.8217 1.68858H13.7964C13.6701 4.52098 13.8573 8.17983 13.9446 9.6292C13.9492 9.71578 14.0135 9.77874 14.1008 9.78324C15.2817 9.84958 19.3504 10.034 22.2762 9.61233C22.2831 8.03365 21.1792 5.89277 19.517 4.26686C17.8123 2.60048 15.7952 1.68858 13.8217 1.68858Z" fill="#676767"/>
</svg>
