<svg width="42" height="42" viewBox="0 0 42 42" fill="none" xmlns="http://www.w3.org/2000/svg">
<rect x="1.07119" y="0.442773" width="40.818" height="40.818" rx="20.409" fill="#F0F0F0"/>
<rect x="1.07119" y="0.442773" width="40.818" height="40.818" rx="20.409" stroke="#B0B0B0" stroke-width="0.2"/>
<g clip-path="url(#clip0_197_257)">
<path fill-rule="evenodd" clip-rule="evenodd" d="M24.1895 16.5824L24.5518 16.9453L25.2761 16.2196L24.914 15.8568L21.8408 12.7783H21.1165L18.0434 15.8568L17.6812 16.2196L18.4056 16.9453L18.7677 16.5824L20.9665 14.3798V22.3767V22.8898H21.9908V22.3767V14.3798L24.1895 16.5824ZM14.3081 18.272L14.8203 17.7589H17.3812V18.7851H15.3325V28.0206H27.6249V18.7851H25.5761V17.7589H28.137L28.6492 18.272V28.5337L28.137 29.0468H14.8203L14.3081 28.5337V18.272Z" fill="black"/>
</g>
<defs>
<clipPath id="clip0_197_257">
<rect width="16.3898" height="16.4188" fill="white" transform="translate(13.2856 12.6279)"/>
</clipPath>
</defs>
</svg>
